<svg xmlns="http://www.w3.org/2000/svg" version="1.1" style="font-family:Lato, &#x27;Helvetica Neue&#x27;, Helvetica, Arial, sans-serif;font-size:18px;background-color:white;text-rendering:geometricPrecision;-webkit-font-smoothing:antialiased" width="850" height="600" viewBox="0 0 850 600"><g class="HeaderView"><g transform="translate(774, 15) scale(0.29)"><svg className="owidLog" width="210" height="120" viewBox="0 0 210 120" fill="none" xmlns="http://www.w3.org/2000/svg">
<g clip-path="url(#clip0)">
  <path d="M0 0h210v107.89H0V0z" fill="#002147" />
  <path
    d="M40.98 32.25c0 2.36-.38 4.53-1.12 6.51a14.26 14.26 0 0 1-8.1 8.4c-1.9.78-4.02 1.17-6.34 1.17-2.31 0-4.42-.39-6.33-1.17a14.31 14.31 0 0 1-8.08-8.4 18.29 18.29 0 0 1-1.12-6.51c0-2.36.38-4.53 1.12-6.5.75-1.97 1.8-3.67 3.17-5.1a14.32 14.32 0 0 1 4.9-3.34c1.92-.8 4.03-1.19 6.34-1.19 2.32 0 4.43.4 6.34 1.19 1.92.8 3.56 1.9 4.93 3.34a14.87 14.87 0 0 1 3.17 5.1 18.1 18.1 0 0 1 1.12 6.5zm-4.38 0c0-1.94-.26-3.68-.8-5.22a10.91 10.91 0 0 0-2.24-3.89 9.68 9.68 0 0 0-3.52-2.46 11.95 11.95 0 0 0-4.62-.86c-1.68 0-3.21.28-4.6.86a9.88 9.88 0 0 0-3.54 2.46 10.91 10.91 0 0 0-2.24 3.9c-.53 1.53-.8 3.27-.8 5.2 0 1.94.27 3.68.8 5.22a11.17 11.17 0 0 0 2.24 3.9 10.01 10.01 0 0 0 3.55 2.44c1.38.56 2.9.83 4.6.83s3.24-.27 4.61-.83a9.8 9.8 0 0 0 3.52-2.44 11.17 11.17 0 0 0 2.25-3.9c.53-1.54.8-3.28.8-5.21zm26.22-6.54V48H60.5c-.56 0-.9-.27-1.05-.81l-.31-2.4a12.45 12.45 0 0 1-3.26 2.6c-1.2.64-2.58.96-4.13.96-1.22 0-2.3-.2-3.24-.6a6.52 6.52 0 0 1-2.33-1.7 7.37 7.37 0 0 1-1.43-2.67c-.3-1.04-.46-2.2-.46-3.45V25.7h3.91v14.22c0 1.68.38 2.99 1.15 3.91.77.93 1.96 1.39 3.54 1.39 1.16 0 2.24-.27 3.23-.82a10.42 10.42 0 0 0 2.8-2.28V25.7h3.91zm8.61 4.47a9.94 9.94 0 0 1 2.6-3.56 5.64 5.64 0 0 1 3.76-1.3c.47 0 .92.05 1.34.15.44.1.83.27 1.17.49l-.3 2.92c-.09.37-.3.55-.66.55-.2 0-.5-.04-.9-.13a6.21 6.21 0 0 0-3.24.18 4.23 4.23 0 0 0-1.47.92c-.42.4-.81.9-1.17 1.5-.33.58-.64 1.26-.92 2.02V48H67.7V25.71h2.25c.42 0 .72.08.88.25.16.16.27.44.33.83l.26 3.39zm61.16-13.7L122.75 48h-3.82l-7.99-24.05a21.95 21.95 0 0 1-.42-1.58 38.36 38.36 0 0 1-.44 1.58L102.05 48h-3.83L88.4 16.47h3.54c.38 0 .7.1.95.29.26.2.43.43.5.73l6.52 21.9.28 1.28.29 1.46.3-1.46.38-1.27 7.41-21.91c.1-.25.26-.48.51-.69.27-.22.58-.33.95-.33h1.23c.38 0 .69.1.92.29a1.77 1.77 0 0 1 .53.73l7.4 21.9a28.4 28.4 0 0 1 .68 2.62 29.52 29.52 0 0 1 .52-2.61l6.54-21.91a1.31 1.31 0 0 1 .48-.7c.27-.21.58-.32.95-.32h3.32zm9.35 8.88c1.63 0 3.1.27 4.4.82a9.43 9.43 0 0 1 5.46 5.94c.5 1.4.74 2.98.74 4.73 0 1.76-.25 3.34-.74 4.75a9.43 9.43 0 0 1-5.46 5.92c-1.3.52-2.77.79-4.4.79-1.64 0-3.12-.27-4.44-.8a9.42 9.42 0 0 1-3.35-2.3c-.92-1-1.63-2.2-2.13-3.61-.49-1.41-.73-3-.73-4.75s.24-3.33.73-4.73c.5-1.43 1.2-2.64 2.13-3.63.93-1 2.04-1.77 3.35-2.31 1.32-.55 2.8-.82 4.44-.82zm0 19.89c2.2 0 3.84-.73 4.93-2.2 1.08-1.48 1.63-3.54 1.63-6.18 0-2.66-.55-4.72-1.63-6.2-1.09-1.49-2.73-2.23-4.93-2.23-1.12 0-2.09.2-2.93.57a5.71 5.71 0 0 0-2.06 1.65c-.55.72-.96 1.61-1.24 2.67-.26 1.04-.4 2.22-.4 3.54 0 2.64.55 4.7 1.64 6.18 1.1 1.47 2.76 2.2 4.99 2.2zm17.97-15.07a9.94 9.94 0 0 1 2.6-3.56 5.64 5.64 0 0 1 3.76-1.3c.47 0 .91.05 1.34.15.44.1.83.27 1.16.49l-.28 2.92c-.09.37-.31.55-.66.55-.2 0-.5-.04-.9-.13a6.2 6.2 0 0 0-3.24.18 4.23 4.23 0 0 0-1.47.92c-.43.4-.82.9-1.17 1.5a13.1 13.1 0 0 0-.92 2.02V48h-3.94V25.71h2.24c.43 0 .72.08.88.25.17.16.28.44.33.83l.27 3.39zm15.04-14.59V48h-3.92V15.6h3.92zm19.55 15.43a6.22 6.22 0 0 0-2.38-2.05 6.7 6.7 0 0 0-2.86-.6c-2.07 0-3.66.75-4.77 2.23-1.12 1.48-1.68 3.6-1.68 6.33 0 1.46.13 2.7.38 3.74a7.29 7.29 0 0 0 1.1 2.56 4.35 4.35 0 0 0 1.78 1.45c.7.3 1.5.46 2.4.46 1.29 0 2.41-.3 3.36-.88a9.6 9.6 0 0 0 2.67-2.49V31.02zm3.91-15.43V48h-2.33c-.56 0-.9-.27-1.06-.81l-.35-2.71a12.13 12.13 0 0 1-3.25 2.77 8.28 8.28 0 0 1-4.23 1.06 7.31 7.31 0 0 1-6.14-2.9c-.73-.96-1.3-2.15-1.69-3.57a18.35 18.35 0 0 1 .07-9.48 11.29 11.29 0 0 1 1.89-3.7 8.7 8.7 0 0 1 7.06-3.34 7.96 7.96 0 0 1 6.12 2.62V15.59h3.91zM46.61 70.71V93H42.7V70.71h3.91zm.84-7c0 .39-.08.75-.24 1.09-.15.32-.35.61-.62.88-.25.25-.55.44-.9.59a2.67 2.67 0 0 1-2.16 0 2.9 2.9 0 0 1-1.45-1.47 2.67 2.67 0 0 1 0-2.16c.15-.35.35-.65.6-.9.25-.27.53-.47.85-.62a2.67 2.67 0 0 1 2.16 0c.35.15.65.35.9.62.27.25.47.55.62.9.16.34.24.7.24 1.08zm7.97 10.24c.49-.54 1-1.04 1.54-1.48a9.85 9.85 0 0 1 3.66-1.84 8.96 8.96 0 0 1 5.43.35c.94.4 1.72.97 2.33 1.71.63.74 1.11 1.62 1.43 2.67.32 1.04.49 2.19.49 3.45V93h-3.94V78.81c0-1.69-.4-3-1.17-3.92-.76-.93-1.93-1.4-3.5-1.4-1.15 0-2.24.27-3.25.83-1 .56-1.92 1.31-2.77 2.27V93h-3.94V70.71h2.35c.56 0 .9.28 1.04.82l.3 2.42zm57.7 3.3c0 2.36-.37 4.5-1.11 6.44a14.3 14.3 0 0 1-3.17 4.98c-1.37 1.37-3 2.45-4.93 3.2-1.9.76-4.02 1.13-6.33 1.13H85.8V61.47h11.77c2.31 0 4.42.39 6.33 1.15a13.8 13.8 0 0 1 8.1 8.18 17.75 17.75 0 0 1 1.12 6.45zm-4.37 0c0-1.94-.26-3.67-.8-5.2a10.94 10.94 0 0 0-2.23-3.87 9.57 9.57 0 0 0-3.53-2.42 12.23 12.23 0 0 0-4.61-.83h-7.5v24.62h7.5c1.7 0 3.24-.28 4.61-.84a9.7 9.7 0 0 0 3.53-2.4 10.94 10.94 0 0 0 2.24-3.87c.53-1.53.8-3.26.8-5.2zm19.8 5.72c-1.8.06-3.34.2-4.62.44-1.26.22-2.3.51-3.1.88-.8.36-1.37.8-1.74 1.3-.35.5-.53 1.05-.53 1.67 0 .58.1 1.1.3 1.52a3 3 0 0 0 .76 1.05c.34.27.73.46 1.17.6a6.13 6.13 0 0 0 1.45.17 7.28 7.28 0 0 0 3.5-.81 11.95 11.95 0 0 0 2.82-2.2v-4.62zm-12.65-9.11a12.73 12.73 0 0 1 3.98-2.66c1.43-.59 3-.88 4.73-.88 1.25 0 2.36.2 3.33.61a6.81 6.81 0 0 1 3.94 4.38c.33 1.04.5 2.19.5 3.43V93h-1.74a1.8 1.8 0 0 1-.88-.18c-.2-.13-.36-.38-.48-.74l-.44-2.12-1.72 1.46a9.48 9.48 0 0 1-3.74 1.7c-.69.15-1.46.23-2.3.23-.87 0-1.69-.12-2.45-.35a5.34 5.34 0 0 1-3.34-2.93 6.64 6.64 0 0 1-.49-2.64c0-.88.25-1.72.73-2.53a6.33 6.33 0 0 1 2.35-2.17c1.09-.63 2.5-1.15 4.25-1.54 1.75-.41 3.89-.65 6.42-.7v-1.75c0-1.73-.37-3.03-1.12-3.91-.75-.9-1.84-1.34-3.28-1.34-.97 0-1.78.12-2.44.37-.64.23-1.2.5-1.7.81l-1.23.82c-.33.23-.67.35-1 .35-.27 0-.5-.07-.69-.2a2.1 2.1 0 0 1-.48-.53l-.7-1.25zm27.67 19.5c-1.76 0-3.12-.5-4.07-1.48-.94-.98-1.41-2.4-1.41-4.25V74h-2.68a.9.9 0 0 1-.6-.2c-.16-.14-.24-.36-.24-.66v-1.56l3.65-.46.9-6.89c.05-.22.14-.4.29-.52a.88.88 0 0 1 .62-.22H142v7.67h6.44V74H142v13.38c0 .94.22 1.63.68 2.09.45.45 1.04.68 1.76.68a3.21 3.21 0 0 0 1.85-.53l.55-.35c.16-.12.3-.18.41-.18.2 0 .4.13.55.38l1.15 1.87a7.45 7.45 0 0 1-2.44 1.5 8.53 8.53 0 0 1-2.95.52zm19.68-10.4c-1.8.07-3.34.21-4.62.45-1.26.22-2.3.51-3.1.88-.8.36-1.37.8-1.74 1.3-.35.5-.53 1.05-.53 1.67 0 .58.1 1.1.3 1.52a2.9 2.9 0 0 0 .76 1.05c.34.27.73.46 1.17.6a6.13 6.13 0 0 0 1.45.17 7.3 7.3 0 0 0 3.5-.81 12.04 12.04 0 0 0 2.82-2.2v-4.62zm-12.65-9.1a12.72 12.72 0 0 1 3.99-2.66c1.42-.59 3-.88 4.72-.88 1.25 0 2.36.2 3.33.61a6.81 6.81 0 0 1 3.94 4.38c.33 1.04.5 2.19.5 3.43V93h-1.74a1.8 1.8 0 0 1-.88-.18c-.2-.13-.36-.38-.48-.74l-.44-2.12-1.72 1.46a9.48 9.48 0 0 1-3.74 1.7c-.69.15-1.46.23-2.3.23-.87 0-1.69-.12-2.45-.35a5.33 5.33 0 0 1-3.34-2.93 6.62 6.62 0 0 1-.49-2.64c0-.88.25-1.72.73-2.53a6.33 6.33 0 0 1 2.35-2.17c1.09-.63 2.5-1.15 4.25-1.54 1.74-.41 3.89-.65 6.42-.7v-1.75c0-1.73-.37-3.03-1.12-3.91-.75-.9-1.84-1.34-3.28-1.34-.97 0-1.78.12-2.44.37-.64.23-1.2.5-1.7.81l-1.22.82c-.34.23-.68.35-1.02.35-.26 0-.49-.07-.68-.2a1.88 1.88 0 0 1-.48-.53l-.7-1.25zM40.98 32.25c0 2.36-.38 4.53-1.12 6.51a14.26 14.26 0 0 1-8.1 8.4c-1.9.78-4.02 1.17-6.34 1.17-2.31 0-4.42-.39-6.33-1.17a14.31 14.31 0 0 1-8.08-8.4 18.29 18.29 0 0 1-1.12-6.51c0-2.36.38-4.53 1.12-6.5.75-1.97 1.8-3.67 3.17-5.1a14.32 14.32 0 0 1 4.9-3.34c1.92-.8 4.03-1.19 6.34-1.19 2.32 0 4.43.4 6.34 1.19 1.92.8 3.56 1.9 4.93 3.34a14.87 14.87 0 0 1 3.17 5.1 18.1 18.1 0 0 1 1.12 6.5zm-4.38 0c0-1.94-.26-3.68-.8-5.22a10.91 10.91 0 0 0-2.24-3.89 9.68 9.68 0 0 0-3.52-2.46 11.95 11.95 0 0 0-4.62-.86c-1.68 0-3.21.28-4.6.86a9.88 9.88 0 0 0-3.54 2.46 10.91 10.91 0 0 0-2.24 3.9c-.53 1.53-.8 3.27-.8 5.2 0 1.94.27 3.68.8 5.22a11.17 11.17 0 0 0 2.24 3.9 10.01 10.01 0 0 0 3.55 2.44c1.38.56 2.9.83 4.6.83s3.24-.27 4.61-.83a9.8 9.8 0 0 0 3.52-2.44 11.17 11.17 0 0 0 2.25-3.9c.53-1.54.8-3.28.8-5.21zm26.22-6.54V48H60.5c-.56 0-.9-.27-1.05-.81l-.31-2.4a12.45 12.45 0 0 1-3.26 2.6c-1.2.64-2.58.96-4.13.96-1.22 0-2.3-.2-3.24-.6a6.52 6.52 0 0 1-2.33-1.7 7.37 7.37 0 0 1-1.43-2.67c-.3-1.04-.46-2.2-.46-3.45V25.7h3.91v14.22c0 1.68.38 2.99 1.15 3.91.77.93 1.96 1.39 3.54 1.39 1.16 0 2.24-.27 3.23-.82a10.42 10.42 0 0 0 2.8-2.28V25.7h3.91zm8.61 4.47a9.94 9.94 0 0 1 2.6-3.56 5.64 5.64 0 0 1 3.76-1.3c.47 0 .92.05 1.34.15.44.1.83.27 1.17.49l-.3 2.92c-.09.37-.3.55-.66.55-.2 0-.5-.04-.9-.13a6.21 6.21 0 0 0-3.24.18 4.23 4.23 0 0 0-1.47.92c-.42.4-.81.9-1.17 1.5-.33.58-.64 1.26-.92 2.02V48H67.7V25.71h2.25c.42 0 .72.08.88.25.16.16.27.44.33.83l.26 3.39zm61.16-13.7L122.75 48h-3.82l-7.99-24.05a21.95 21.95 0 0 1-.42-1.58 38.36 38.36 0 0 1-.44 1.58L102.05 48h-3.83L88.4 16.47h3.54c.38 0 .7.1.95.29.26.2.43.43.5.73l6.52 21.9.28 1.28.29 1.46.3-1.46.38-1.27 7.41-21.91c.1-.25.26-.48.51-.69.27-.22.58-.33.95-.33h1.23c.38 0 .69.1.92.29a1.77 1.77 0 0 1 .53.73l7.4 21.9a28.4 28.4 0 0 1 .68 2.62 29.52 29.52 0 0 1 .52-2.61l6.54-21.91a1.31 1.31 0 0 1 .48-.7c.27-.21.58-.32.95-.32h3.32zm9.35 8.88c1.63 0 3.1.27 4.4.82a9.43 9.43 0 0 1 5.46 5.94c.5 1.4.74 2.98.74 4.73 0 1.76-.25 3.34-.74 4.75a9.43 9.43 0 0 1-5.46 5.92c-1.3.52-2.77.79-4.4.79-1.64 0-3.12-.27-4.44-.8a9.42 9.42 0 0 1-3.35-2.3c-.92-1-1.63-2.2-2.13-3.61-.49-1.41-.73-3-.73-4.75s.24-3.33.73-4.73c.5-1.43 1.2-2.64 2.13-3.63.93-1 2.04-1.77 3.35-2.31 1.32-.55 2.8-.82 4.44-.82zm0 19.89c2.2 0 3.84-.73 4.93-2.2 1.08-1.48 1.63-3.54 1.63-6.18 0-2.66-.55-4.72-1.63-6.2-1.09-1.49-2.73-2.23-4.93-2.23-1.12 0-2.09.2-2.93.57a5.71 5.71 0 0 0-2.06 1.65c-.55.72-.96 1.61-1.24 2.67-.26 1.04-.4 2.22-.4 3.54 0 2.64.55 4.7 1.64 6.18 1.1 1.47 2.76 2.2 4.99 2.2zm17.97-15.07a9.94 9.94 0 0 1 2.6-3.56 5.64 5.64 0 0 1 3.76-1.3c.47 0 .91.05 1.34.15.44.1.83.27 1.16.49l-.28 2.92c-.09.37-.31.55-.66.55-.2 0-.5-.04-.9-.13a6.2 6.2 0 0 0-3.24.18 4.23 4.23 0 0 0-1.47.92c-.43.4-.82.9-1.17 1.5a13.1 13.1 0 0 0-.92 2.02V48h-3.94V25.71h2.24c.43 0 .72.08.88.25.17.16.28.44.33.83l.27 3.39zm15.04-14.59V48h-3.92V15.6h3.92zm19.55 15.43a6.22 6.22 0 0 0-2.38-2.05 6.7 6.7 0 0 0-2.86-.6c-2.07 0-3.66.75-4.77 2.23-1.12 1.48-1.68 3.6-1.68 6.33 0 1.46.13 2.7.38 3.74a7.29 7.29 0 0 0 1.1 2.56 4.35 4.35 0 0 0 1.78 1.45c.7.3 1.5.46 2.4.46 1.29 0 2.41-.3 3.36-.88a9.6 9.6 0 0 0 2.67-2.49V31.02zm3.91-15.43V48h-2.33c-.56 0-.9-.27-1.06-.81l-.35-2.71a12.13 12.13 0 0 1-3.25 2.77 8.28 8.28 0 0 1-4.23 1.06 7.31 7.31 0 0 1-6.14-2.9c-.73-.96-1.3-2.15-1.69-3.57a18.35 18.35 0 0 1 .07-9.48 11.29 11.29 0 0 1 1.89-3.7 8.7 8.7 0 0 1 7.06-3.34 7.96 7.96 0 0 1 6.12 2.62V15.59h3.91zM46.61 70.71V93H42.7V70.71h3.91zm.84-7c0 .39-.08.75-.24 1.09-.15.32-.35.61-.62.88-.25.25-.55.44-.9.59a2.67 2.67 0 0 1-2.16 0 2.9 2.9 0 0 1-1.45-1.47 2.67 2.67 0 0 1 0-2.16c.15-.35.35-.65.6-.9.25-.27.53-.47.85-.62a2.67 2.67 0 0 1 2.16 0c.35.15.65.35.9.62.27.25.47.55.62.9.16.34.24.7.24 1.08zm7.97 10.24c.49-.54 1-1.04 1.54-1.48a9.85 9.85 0 0 1 3.66-1.84 8.96 8.96 0 0 1 5.43.35c.94.4 1.72.97 2.33 1.71.63.74 1.11 1.62 1.43 2.67.32 1.04.49 2.19.49 3.45V93h-3.94V78.81c0-1.69-.4-3-1.17-3.92-.76-.93-1.93-1.4-3.5-1.4-1.15 0-2.24.27-3.25.83-1 .56-1.92 1.31-2.77 2.27V93h-3.94V70.71h2.35c.56 0 .9.28 1.04.82l.3 2.42zm57.7 3.3c0 2.36-.37 4.5-1.11 6.44a14.3 14.3 0 0 1-3.17 4.98c-1.37 1.37-3 2.45-4.93 3.2-1.9.76-4.02 1.13-6.33 1.13H85.8V61.47h11.77c2.31 0 4.42.39 6.33 1.15a13.8 13.8 0 0 1 8.1 8.18 17.75 17.75 0 0 1 1.12 6.45zm-4.37 0c0-1.94-.26-3.67-.8-5.2a10.94 10.94 0 0 0-2.23-3.87 9.57 9.57 0 0 0-3.53-2.42 12.23 12.23 0 0 0-4.61-.83h-7.5v24.62h7.5c1.7 0 3.24-.28 4.61-.84a9.7 9.7 0 0 0 3.53-2.4 10.94 10.94 0 0 0 2.24-3.87c.53-1.53.8-3.26.8-5.2zm19.8 5.72c-1.8.06-3.34.2-4.62.44-1.26.22-2.3.51-3.1.88-.8.36-1.37.8-1.74 1.3-.35.5-.53 1.05-.53 1.67 0 .58.1 1.1.3 1.52a3 3 0 0 0 .76 1.05c.34.27.73.46 1.17.6a6.13 6.13 0 0 0 1.45.17 7.28 7.28 0 0 0 3.5-.81 11.95 11.95 0 0 0 2.82-2.2v-4.62zm-12.65-9.11a12.73 12.73 0 0 1 3.98-2.66c1.43-.59 3-.88 4.73-.88 1.25 0 2.36.2 3.33.61a6.81 6.81 0 0 1 3.94 4.38c.33 1.04.5 2.19.5 3.43V93h-1.74a1.8 1.8 0 0 1-.88-.18c-.2-.13-.36-.38-.48-.74l-.44-2.12-1.72 1.46a9.48 9.48 0 0 1-3.74 1.7c-.69.15-1.46.23-2.3.23-.87 0-1.69-.12-2.45-.35a5.34 5.34 0 0 1-3.34-2.93 6.64 6.64 0 0 1-.49-2.64c0-.88.25-1.72.73-2.53a6.33 6.33 0 0 1 2.35-2.17c1.09-.63 2.5-1.15 4.25-1.54 1.75-.41 3.89-.65 6.42-.7v-1.75c0-1.73-.37-3.03-1.12-3.91-.75-.9-1.84-1.34-3.28-1.34-.97 0-1.78.12-2.44.37-.64.23-1.2.5-1.7.81l-1.23.82c-.33.23-.67.35-1 .35-.27 0-.5-.07-.69-.2a2.1 2.1 0 0 1-.48-.53l-.7-1.25zm27.67 19.5c-1.76 0-3.12-.5-4.07-1.48-.94-.98-1.41-2.4-1.41-4.25V74h-2.68a.9.9 0 0 1-.6-.2c-.16-.14-.24-.36-.24-.66v-1.56l3.65-.46.9-6.89c.05-.22.14-.4.29-.52a.88.88 0 0 1 .62-.22H142v7.67h6.44V74H142v13.38c0 .94.22 1.63.68 2.09.45.45 1.04.68 1.76.68a3.21 3.21 0 0 0 1.85-.53l.55-.35c.16-.12.3-.18.41-.18.2 0 .4.13.55.38l1.15 1.87a7.45 7.45 0 0 1-2.44 1.5 8.53 8.53 0 0 1-2.95.52zm19.68-10.4c-1.8.07-3.34.21-4.62.45-1.26.22-2.3.51-3.1.88-.8.36-1.37.8-1.74 1.3-.35.5-.53 1.05-.53 1.67 0 .58.1 1.1.3 1.52a2.9 2.9 0 0 0 .76 1.05c.34.27.73.46 1.17.6a6.13 6.13 0 0 0 1.45.17 7.3 7.3 0 0 0 3.5-.81 12.04 12.04 0 0 0 2.82-2.2v-4.62zm-12.65-9.1a12.72 12.72 0 0 1 3.99-2.66c1.42-.59 3-.88 4.72-.88 1.25 0 2.36.2 3.33.61a6.81 6.81 0 0 1 3.94 4.38c.33 1.04.5 2.19.5 3.43V93h-1.74a1.8 1.8 0 0 1-.88-.18c-.2-.13-.36-.38-.48-.74l-.44-2.12-1.72 1.46a9.48 9.48 0 0 1-3.74 1.7c-.69.15-1.46.23-2.3.23-.87 0-1.69-.12-2.45-.35a5.33 5.33 0 0 1-3.34-2.93 6.62 6.62 0 0 1-.49-2.64c0-.88.25-1.72.73-2.53a6.33 6.33 0 0 1 2.35-2.17c1.09-.63 2.5-1.15 4.25-1.54 1.74-.41 3.89-.65 6.42-.7v-1.75c0-1.73-.37-3.03-1.12-3.91-.75-.9-1.84-1.34-3.28-1.34-.97 0-1.78.12-2.44.37-.64.23-1.2.5-1.7.81l-1.22.82c-.34.23-.68.35-1.02.35-.26 0-.49-.07-.68-.2a1.88 1.88 0 0 1-.48-.53l-.7-1.25zM40.98 32.25c0 2.36-.38 4.53-1.12 6.51a14.26 14.26 0 0 1-8.1 8.4c-1.9.78-4.02 1.17-6.34 1.17-2.31 0-4.42-.39-6.33-1.17a14.31 14.31 0 0 1-8.08-8.4 18.29 18.29 0 0 1-1.12-6.51c0-2.36.38-4.53 1.12-6.5.75-1.97 1.8-3.67 3.17-5.1a14.32 14.32 0 0 1 4.9-3.34c1.92-.8 4.03-1.19 6.34-1.19 2.32 0 4.43.4 6.34 1.19 1.92.8 3.56 1.9 4.93 3.34a14.87 14.87 0 0 1 3.17 5.1 18.1 18.1 0 0 1 1.12 6.5zm-4.38 0c0-1.94-.26-3.68-.8-5.22a10.91 10.91 0 0 0-2.24-3.89 9.68 9.68 0 0 0-3.52-2.46 11.95 11.95 0 0 0-4.62-.86c-1.68 0-3.21.28-4.6.86a9.88 9.88 0 0 0-3.54 2.46 10.91 10.91 0 0 0-2.24 3.9c-.53 1.53-.8 3.27-.8 5.2 0 1.94.27 3.68.8 5.22a11.17 11.17 0 0 0 2.24 3.9 10.01 10.01 0 0 0 3.55 2.44c1.38.56 2.9.83 4.6.83s3.24-.27 4.61-.83a9.8 9.8 0 0 0 3.52-2.44 11.17 11.17 0 0 0 2.25-3.9c.53-1.54.8-3.28.8-5.21zm26.22-6.54V48H60.5c-.56 0-.9-.27-1.05-.81l-.31-2.4a12.45 12.45 0 0 1-3.26 2.6c-1.2.64-2.58.96-4.13.96-1.22 0-2.3-.2-3.24-.6a6.52 6.52 0 0 1-2.33-1.7 7.37 7.37 0 0 1-1.43-2.67c-.3-1.04-.46-2.2-.46-3.45V25.7h3.91v14.22c0 1.68.38 2.99 1.15 3.91.77.93 1.96 1.39 3.54 1.39 1.16 0 2.24-.27 3.23-.82a10.42 10.42 0 0 0 2.8-2.28V25.7h3.91zm8.61 4.47a9.94 9.94 0 0 1 2.6-3.56 5.64 5.64 0 0 1 3.76-1.3c.47 0 .92.05 1.34.15.44.1.83.27 1.17.49l-.3 2.92c-.09.37-.3.55-.66.55-.2 0-.5-.04-.9-.13a6.21 6.21 0 0 0-3.24.18 4.23 4.23 0 0 0-1.47.92c-.42.4-.81.9-1.17 1.5-.33.58-.64 1.26-.92 2.02V48H67.7V25.71h2.25c.42 0 .72.08.88.25.16.16.27.44.33.83l.26 3.39zm61.16-13.7L122.75 48h-3.82l-7.99-24.05a21.95 21.95 0 0 1-.42-1.58 38.36 38.36 0 0 1-.44 1.58L102.05 48h-3.83L88.4 16.47h3.54c.38 0 .7.1.95.29.26.2.43.43.5.73l6.52 21.9.28 1.28.29 1.46.3-1.46.38-1.27 7.41-21.91c.1-.25.26-.48.51-.69.27-.22.58-.33.95-.33h1.23c.38 0 .69.1.92.29a1.77 1.77 0 0 1 .53.73l7.4 21.9a28.4 28.4 0 0 1 .68 2.62 29.52 29.52 0 0 1 .52-2.61l6.54-21.91a1.31 1.31 0 0 1 .48-.7c.27-.21.58-.32.95-.32h3.32zm9.35 8.88c1.63 0 3.1.27 4.4.82a9.43 9.43 0 0 1 5.46 5.94c.5 1.4.74 2.98.74 4.73 0 1.76-.25 3.34-.74 4.75a9.43 9.43 0 0 1-5.46 5.92c-1.3.52-2.77.79-4.4.79-1.64 0-3.12-.27-4.44-.8a9.42 9.42 0 0 1-3.35-2.3c-.92-1-1.63-2.2-2.13-3.61-.49-1.41-.73-3-.73-4.75s.24-3.33.73-4.73c.5-1.43 1.2-2.64 2.13-3.63.93-1 2.04-1.77 3.35-2.31 1.32-.55 2.8-.82 4.44-.82zm0 19.89c2.2 0 3.84-.73 4.93-2.2 1.08-1.48 1.63-3.54 1.63-6.18 0-2.66-.55-4.72-1.63-6.2-1.09-1.49-2.73-2.23-4.93-2.23-1.12 0-2.09.2-2.93.57a5.71 5.71 0 0 0-2.06 1.65c-.55.72-.96 1.61-1.24 2.67-.26 1.04-.4 2.22-.4 3.54 0 2.64.55 4.7 1.64 6.18 1.1 1.47 2.76 2.2 4.99 2.2zm17.97-15.07a9.94 9.94 0 0 1 2.6-3.56 5.64 5.64 0 0 1 3.76-1.3c.47 0 .91.05 1.34.15.44.1.83.27 1.16.49l-.28 2.92c-.09.37-.31.55-.66.55-.2 0-.5-.04-.9-.13a6.2 6.2 0 0 0-3.24.18 4.23 4.23 0 0 0-1.47.92c-.43.4-.82.9-1.17 1.5a13.1 13.1 0 0 0-.92 2.02V48h-3.94V25.71h2.24c.43 0 .72.08.88.25.17.16.28.44.33.83l.27 3.39zm15.04-14.59V48h-3.92V15.6h3.92zm19.55 15.43a6.22 6.22 0 0 0-2.38-2.05 6.7 6.7 0 0 0-2.86-.6c-2.07 0-3.66.75-4.77 2.23-1.12 1.48-1.68 3.6-1.68 6.33 0 1.46.13 2.7.38 3.74a7.29 7.29 0 0 0 1.1 2.56 4.35 4.35 0 0 0 1.78 1.45c.7.3 1.5.46 2.4.46 1.29 0 2.41-.3 3.36-.88a9.6 9.6 0 0 0 2.67-2.49V31.02zm3.91-15.43V48h-2.33c-.56 0-.9-.27-1.06-.81l-.35-2.71a12.13 12.13 0 0 1-3.25 2.77 8.28 8.28 0 0 1-4.23 1.06 7.31 7.31 0 0 1-6.14-2.9c-.73-.96-1.3-2.15-1.69-3.57a18.35 18.35 0 0 1 .07-9.48 11.29 11.29 0 0 1 1.89-3.7 8.7 8.7 0 0 1 7.06-3.34 7.96 7.96 0 0 1 6.12 2.62V15.59h3.91zM46.61 70.71V93H42.7V70.71h3.91zm.84-7c0 .39-.08.75-.24 1.09-.15.32-.35.61-.62.88-.25.25-.55.44-.9.59a2.67 2.67 0 0 1-2.16 0 2.9 2.9 0 0 1-1.45-1.47 2.67 2.67 0 0 1 0-2.16c.15-.35.35-.65.6-.9.25-.27.53-.47.85-.62a2.67 2.67 0 0 1 2.16 0c.35.15.65.35.9.62.27.25.47.55.62.9.16.34.24.7.24 1.08zm7.97 10.24c.49-.54 1-1.04 1.54-1.48a9.85 9.85 0 0 1 3.66-1.84 8.96 8.96 0 0 1 5.43.35c.94.4 1.72.97 2.33 1.71.63.74 1.11 1.62 1.43 2.67.32 1.04.49 2.19.49 3.45V93h-3.94V78.81c0-1.69-.4-3-1.17-3.92-.76-.93-1.93-1.4-3.5-1.4-1.15 0-2.24.27-3.25.83-1 .56-1.92 1.31-2.77 2.27V93h-3.94V70.71h2.35c.56 0 .9.28 1.04.82l.3 2.42zm57.7 3.3c0 2.36-.37 4.5-1.11 6.44a14.3 14.3 0 0 1-3.17 4.98c-1.37 1.37-3 2.45-4.93 3.2-1.9.76-4.02 1.13-6.33 1.13H85.8V61.47h11.77c2.31 0 4.42.39 6.33 1.15a13.8 13.8 0 0 1 8.1 8.18 17.75 17.75 0 0 1 1.12 6.45zm-4.37 0c0-1.94-.26-3.67-.8-5.2a10.94 10.94 0 0 0-2.23-3.87 9.57 9.57 0 0 0-3.53-2.42 12.23 12.23 0 0 0-4.61-.83h-7.5v24.62h7.5c1.7 0 3.24-.28 4.61-.84a9.7 9.7 0 0 0 3.53-2.4 10.94 10.94 0 0 0 2.24-3.87c.53-1.53.8-3.26.8-5.2zm19.8 5.72c-1.8.06-3.34.2-4.62.44-1.26.22-2.3.51-3.1.88-.8.36-1.37.8-1.74 1.3-.35.5-.53 1.05-.53 1.67 0 .58.1 1.1.3 1.52a3 3 0 0 0 .76 1.05c.34.27.73.46 1.17.6a6.13 6.13 0 0 0 1.45.17 7.28 7.28 0 0 0 3.5-.81 11.95 11.95 0 0 0 2.82-2.2v-4.62zm-12.65-9.11a12.73 12.73 0 0 1 3.98-2.66c1.43-.59 3-.88 4.73-.88 1.25 0 2.36.2 3.33.61a6.81 6.81 0 0 1 3.94 4.38c.33 1.04.5 2.19.5 3.43V93h-1.74a1.8 1.8 0 0 1-.88-.18c-.2-.13-.36-.38-.48-.74l-.44-2.12-1.72 1.46a9.48 9.48 0 0 1-3.74 1.7c-.69.15-1.46.23-2.3.23-.87 0-1.69-.12-2.45-.35a5.34 5.34 0 0 1-3.34-2.93 6.64 6.64 0 0 1-.49-2.64c0-.88.25-1.72.73-2.53a6.33 6.33 0 0 1 2.35-2.17c1.09-.63 2.5-1.15 4.25-1.54 1.75-.41 3.89-.65 6.42-.7v-1.75c0-1.73-.37-3.03-1.12-3.91-.75-.9-1.84-1.34-3.28-1.34-.97 0-1.78.12-2.44.37-.64.23-1.2.5-1.7.81l-1.23.82c-.33.23-.67.35-1 .35-.27 0-.5-.07-.69-.2a2.1 2.1 0 0 1-.48-.53l-.7-1.25zm27.67 19.5c-1.76 0-3.12-.5-4.07-1.48-.94-.98-1.41-2.4-1.41-4.25V74h-2.68a.9.9 0 0 1-.6-.2c-.16-.14-.24-.36-.24-.66v-1.56l3.65-.46.9-6.89c.05-.22.14-.4.29-.52a.88.88 0 0 1 .62-.22H142v7.67h6.44V74H142v13.38c0 .94.22 1.63.68 2.09.45.45 1.04.68 1.76.68a3.21 3.21 0 0 0 1.85-.53l.55-.35c.16-.12.3-.18.41-.18.2 0 .4.13.55.38l1.15 1.87a7.45 7.45 0 0 1-2.44 1.5 8.53 8.53 0 0 1-2.95.52zm19.68-10.4c-1.8.07-3.34.21-4.62.45-1.26.22-2.3.51-3.1.88-.8.36-1.37.8-1.74 1.3-.35.5-.53 1.05-.53 1.67 0 .58.1 1.1.3 1.52a2.9 2.9 0 0 0 .76 1.05c.34.27.73.46 1.17.6a6.13 6.13 0 0 0 1.45.17 7.3 7.3 0 0 0 3.5-.81 12.04 12.04 0 0 0 2.82-2.2v-4.62zm-12.65-9.1a12.72 12.72 0 0 1 3.99-2.66c1.42-.59 3-.88 4.72-.88 1.25 0 2.36.2 3.33.61a6.81 6.81 0 0 1 3.94 4.38c.33 1.04.5 2.19.5 3.43V93h-1.74a1.8 1.8 0 0 1-.88-.18c-.2-.13-.36-.38-.48-.74l-.44-2.12-1.72 1.46a9.48 9.48 0 0 1-3.74 1.7c-.69.15-1.46.23-2.3.23-.87 0-1.69-.12-2.45-.35a5.33 5.33 0 0 1-3.34-2.93 6.62 6.62 0 0 1-.49-2.64c0-.88.25-1.72.73-2.53a6.33 6.33 0 0 1 2.35-2.17c1.09-.63 2.5-1.15 4.25-1.54 1.74-.41 3.89-.65 6.42-.7v-1.75c0-1.73-.37-3.03-1.12-3.91-.75-.9-1.84-1.34-3.28-1.34-.97 0-1.78.12-2.44.37-.64.23-1.2.5-1.7.81l-1.22.82c-.34.23-.68.35-1.02.35-.26 0-.49-.07-.68-.2a1.88 1.88 0 0 1-.48-.53l-.7-1.25z"
    fill="#fff"
  />
  <path fill="#D42B21" d="M0 106.79h210V120H0z" />
</g>
<defs>
  <clipPath id="clip0"><path fill="#fff" d="M0 0h210v120H0z" /></clipPath>
</defs>
</svg></g><a href="https://ourworldindata.org/grapher/number-of-homicide-deaths?tab=chart&amp;country=BRA~RUS~USA~PAK~NGA~CHN~BGD~IND" style="font-family:&quot;Playfair Display&quot;, Georgia, &quot;Times New Roman&quot;, serif" target="_blank" rel="noopener"><text font-size="25.20" x="15.0" y="35.2" fill="#555"><tspan x="15" y="35.160000000000004">Number of homicide deaths, 1990 to 2019</tspan></text></a><text font-size="14.40" x="15.0" y="55.7" fill="#666"><tspan x="15" y="55.72">Annual number of deaths from interpersonal violence, measured across all ages and both sexes.</tspan></text></g><g class="LineChart"><defs><clipPath id="boundsClip-22"><rect x="59.896" y="66.6" width="840" height="490.79999999999995"></rect></clipPath></defs><g class="DualAxisView"><g class="HorizontalAxis"><line x1="69.9" y1="526.1999999999999" x2="69.9" y2="531.1999999999999" stroke="#999"></line><line x1="718.6" y1="526.1999999999999" x2="718.6" y2="531.1999999999999" stroke="#999"></line><line x1="181.7" y1="526.1999999999999" x2="181.7" y2="531.1999999999999" stroke="#999"></line><line x1="293.6" y1="526.1999999999999" x2="293.6" y2="531.1999999999999" stroke="#999"></line><line x1="405.4" y1="526.1999999999999" x2="405.4" y2="531.1999999999999" stroke="#999"></line><line x1="517.3" y1="526.1999999999999" x2="517.3" y2="531.1999999999999" stroke="#999"></line><line x1="629.1" y1="526.1999999999999" x2="629.1" y2="531.1999999999999" stroke="#999"></line><text x="69.896" y="547.4" fill="#666" text-anchor="start" font-size="16.2">1990</text><text x="718.595" y="547.4" fill="#666" text-anchor="end" font-size="16.2">2019</text><text x="181.7" y="547.4" fill="#666" text-anchor="middle" font-size="16.2">1995</text><text x="293.6" y="547.4" fill="#666" text-anchor="middle" font-size="16.2">2000</text><text x="405.4" y="547.4" fill="#666" text-anchor="middle" font-size="16.2">2005</text><text x="517.3" y="547.4" fill="#666" text-anchor="middle" font-size="16.2">2010</text><text x="629.1" y="547.4" fill="#666" text-anchor="middle" font-size="16.2">2015</text></g><g class="VerticalAxis"><text x="64.90" y="480.2" dy=".32em" text-anchor="end" fill="#666" font-size="16.2">10,000</text><text x="64.90" y="412.5" dy=".32em" text-anchor="end" fill="#666" font-size="16.2">20,000</text><text x="64.90" y="344.8" dy=".32em" text-anchor="end" fill="#666" font-size="16.2">30,000</text><text x="64.90" y="277.2" dy=".32em" text-anchor="end" fill="#666" font-size="16.2">40,000</text><text x="64.90" y="209.5" dy=".32em" text-anchor="end" fill="#666" font-size="16.2">50,000</text><text x="64.90" y="141.8" dy=".32em" text-anchor="end" fill="#666" font-size="16.2">60,000</text></g><g class="AxisGridLines horizontalLines"><line x1="69.90" y1="480.2" x2="718.60" y2="480.2" stroke="#ddd" stroke-dasharray="3,2"></line><line x1="69.90" y1="412.5" x2="718.60" y2="412.5" stroke="#ddd" stroke-dasharray="3,2"></line><line x1="69.90" y1="344.8" x2="718.60" y2="344.8" stroke="#ddd" stroke-dasharray="3,2"></line><line x1="69.90" y1="277.2" x2="718.60" y2="277.2" stroke="#ddd" stroke-dasharray="3,2"></line><line x1="69.90" y1="209.5" x2="718.60" y2="209.5" stroke="#ddd" stroke-dasharray="3,2"></line><line x1="69.90" y1="141.8" x2="718.60" y2="141.8" stroke="#ddd" stroke-dasharray="3,2"></line></g></g><g clip-path="url(#boundsClip-22)"><g class="LineLabels" style="cursor:default"><g class="legendMark"><g class="indicator"><path d="M722.595,101.9 H736.095 V101.9 H749.595" stroke="#999" stroke-width="0.5" fill="none"></path></g><rect x="718.595" y="95.15" width="68.75" height="13.5" fill="#fff" opacity="0"></rect><text font-size="13.50" font-weight="400" x="753.6" y="106.0" fill="#cf0a66"><tspan x="753.595" y="105.95">Brazil</tspan></text></g><g class="legendMark"><g class="indicator"><path d="M722.595,270.7 H736.095 V270.7 H749.595" stroke="#999" stroke-width="0.5" fill="none"></path></g><rect x="718.595" y="263.95" width="64.43" height="13.5" fill="#fff" opacity="0"></rect><text font-size="13.50" font-weight="400" x="753.6" y="274.8" fill="#585c64"><tspan x="753.595" y="274.75">India</tspan></text></g><g class="legendMark"><g class="indicator"><path d="M722.595,397 H736.095 V397 H749.595" stroke="#999" stroke-width="0.5" fill="none"></path></g><rect x="718.595" y="390.25" width="76.31" height="13.5" fill="#fff" opacity="0"></rect><text font-size="13.50" font-weight="400" x="753.6" y="401.1" fill="#3c4e66"><tspan x="753.595" y="401.05">Russia</tspan></text></g><g class="legendMark"><g class="indicator"><path d="M722.595,428 H736.095 V428 H749.595" stroke="#999" stroke-width="0.5" fill="none"></path></g><rect x="718.595" y="421.25" width="116.405" height="13.5" fill="#fff" opacity="0"></rect><text font-size="13.50" font-weight="400" x="753.6" y="432.1" fill="#b13507"><tspan x="753.595" y="432.05">United States</tspan></text></g><g class="legendMark"><g class="indicator"><path d="M722.595,456.9 H740.595 V445.79999999999995 H749.595" stroke="#999" stroke-width="0.5" fill="none"></path></g><rect x="718.595" y="439.04999999999995" width="86.975" height="13.5" fill="#fff" opacity="0"></rect><text font-size="13.50" font-weight="400" x="753.6" y="449.8" fill="#883039"><tspan x="753.595" y="449.84999999999997">Pakistan</tspan></text></g><g class="legendMark"><g class="indicator"><path d="M722.595,460.2 H740.595 V461.29999999999995 H749.595" stroke="#999" stroke-width="0.5" fill="none"></path></g><rect x="718.595" y="454.54999999999995" width="77.795" height="13.5" fill="#fff" opacity="0"></rect><text font-size="13.50" font-weight="400" x="753.6" y="465.3" fill="#00823f"><tspan x="753.595" y="465.34999999999997">Nigeria</tspan></text></g><g class="legendMark"><g class="indicator"><path d="M722.595,466.8 H731.595 V476.79999999999995 H749.595" stroke="#999" stroke-width="0.5" fill="none"></path></g><rect x="718.595" y="470.04999999999995" width="70.37" height="13.5" fill="#fff" opacity="0"></rect><text font-size="13.50" font-weight="400" x="753.6" y="480.8" fill="#4c6a9c"><tspan x="753.595" y="480.84999999999997">China</tspan></text></g><g class="legendMark"><g class="indicator"><path d="M722.595,521.1 H736.095 V519.4499999999999 H749.595" stroke="#999" stroke-width="0.5" fill="none"></path></g><rect x="718.595" y="512.6999999999999" width="106.685" height="13.5" fill="#fff" opacity="0"></rect><text font-size="13.50" font-weight="400" x="753.6" y="523.5" fill="#c05917"><tspan x="753.595" y="523.4999999999999">Bangladesh</tspan></text></g></g><g class="Lines"><rect x="70" y="77" width="649" height="450" fill="rgba(255,255,255,0)" opacity="0"></rect><g><path stroke-linecap="round" stroke-linejoin="round" stroke="#ddd" d="M69.9 276.2L92.3 282.7L114.6 289.5L137 293.9L159.4 289.7L181.7 292.3L204.1 302.9L226.5 311.2L248.8 316.7L271.2 324L293.6 336.5L316 349.5L338.3 358.4L360.7 358.5L383.1 359.3L405.4 368L427.8 378.6L450.2 389.9L472.5 400.5L494.9 408L517.3 419.8L539.6 429.6L562 438.4L584.4 445.4L606.8 451.8L629.1 456.4L651.5 459.4L673.9 463.1L696.2 465.3L718.6 466.8" fill="none" stroke-width="1"></path></g><g><path stroke-linecap="round" stroke-linejoin="round" stroke="#ddd" d="M69.9 285.8L92.3 292L114.6 284.9L137 281.5L159.4 283.5L181.7 280.9L204.1 279.1L226.5 272.4L248.8 264L271.2 257.5L293.6 254.1L316 252.9L338.3 246L360.7 255.9L383.1 254.7L405.4 248.7L427.8 248.9L450.2 249.5L472.5 247L494.9 256.3L517.3 259.5L539.6 262.3L562 280.4L584.4 282.4L606.8 289.5L629.1 285L651.5 282.7L673.9 280.9L696.2 274.5L718.6 270.7" fill="none" stroke-width="1"></path></g><g><path stroke-linecap="round" stroke-linejoin="round" stroke="#ddd" d="M69.9 503.3L92.3 499.5L114.6 494L137 490.7L159.4 497.3L181.7 496.2L204.1 494.4L226.5 489.7L248.8 490.3L271.2 484.4L293.6 476.1L316 474.9L338.3 483.6L360.7 483.2L383.1 471.2L405.4 482.1L427.8 480.6L450.2 479.7L472.5 479.3L494.9 478.7L517.3 472.2L539.6 467.9L562 471.6L584.4 466.4L606.8 460.4L629.1 462.3L651.5 459.3L673.9 456.9L696.2 452.5L718.6 460.2" fill="none" stroke-width="1"></path></g><g><path stroke-linecap="round" stroke-linejoin="round" stroke="#ddd" d="M69.9 492.4L92.3 492.9L114.6 490.8L137 488.5L159.4 486.2L181.7 484.7L204.1 483.2L226.5 481.4L248.8 479.1L271.2 477.3L293.6 475.6L316 473.8L338.3 471.7L360.7 470.5L383.1 468.1L405.4 467.8L427.8 466L450.2 461.2L472.5 457L494.9 457.3L517.3 455.1L539.6 454.7L562 453.6L584.4 451.6L606.8 464.5L629.1 463.2L651.5 460.7L673.9 459.8L696.2 458.2L718.6 456.9" fill="none" stroke-width="1"></path></g><g><path stroke-linecap="round" stroke-linejoin="round" stroke="#ddd" d="M69.9 251.3L92.3 252.7L114.6 258.5L137 237.6L159.4 226.4L181.7 202.1L204.1 197.3L226.5 187.3L248.8 171.2L271.2 172.8L293.6 156.4L316 141.8L338.3 128.5L360.7 127.8L383.1 137.5L405.4 142.3L427.8 140.7L450.2 141.7L472.5 135L494.9 124.9L517.3 122.1L539.6 121.7L562 104L584.4 97.7L606.8 87.3L629.1 87.2L651.5 76.6L673.9 79.1L696.2 94.3L718.6 101.9" fill="none" stroke-width="1"></path></g><g><path stroke-linecap="round" stroke-linejoin="round" stroke="#ddd" d="M69.9 523.5L92.3 522.5L114.6 521.3L137 520.2L159.4 519.6L181.7 519.2L204.1 519.3L226.5 520.2L248.8 521.5L271.2 522.8L293.6 523L316 524.1L338.3 525.4L360.7 526.1L383.1 526.2L405.4 525.8L427.8 524.9L450.2 524.9L472.5 524.9L494.9 524L517.3 523.6L539.6 523L562 523.3L584.4 521.9L606.8 520.6L629.1 520.2L651.5 520.4L673.9 520.6L696.2 520.9L718.6 521.1" fill="none" stroke-width="1"></path></g><g><path stroke-linecap="round" stroke-linejoin="round" stroke="#ddd" d="M69.9 376.4L92.3 371.4L114.6 376.6L137 374.6L159.4 379.4L181.7 389L204.1 401L226.5 409.9L248.8 417.3L271.2 423.2L293.6 424.7L316 421.2L338.3 419.4L360.7 419.9L383.1 420.9L405.4 416.7L427.8 414.1L450.2 416.8L472.5 421.2L494.9 426.4L517.3 430.6L539.6 431.3L562 428.9L584.4 434.4L606.8 435.4L629.1 424.9L651.5 417.6L673.9 420.4L696.2 425.5L718.6 428" fill="none" stroke-width="1"></path></g><g><path stroke-linecap="round" stroke-linejoin="round" stroke="#ddd" d="M69.9 356.1L92.3 338.2L114.6 266.4L137 168.2L159.4 117.3L181.7 129.1L204.1 189.6L226.5 225L248.8 232.6L271.2 193.1L293.6 176.5L316 169.7L338.3 162.7L360.7 172L383.1 185.7L405.4 195.3L427.8 255L450.2 280L472.5 293.1L494.9 323.6L517.3 332.8L539.6 352.8L562 364.4L584.4 370.8L606.8 375.5L629.1 383.9L651.5 396.9L673.9 409.3L696.2 399.7L718.6 397" fill="none" stroke-width="1"></path></g><g><path fill="none" stroke-linecap="butt" stroke-linejoin="round" stroke="#fff" stroke-width="2.5" d="M69.9 276.2L92.3 282.7L114.6 289.5L137 293.9L159.4 289.7L181.7 292.3L204.1 302.9L226.5 311.2L248.8 316.7L271.2 324L293.6 336.5L316 349.5L338.3 358.4L360.7 358.5L383.1 359.3L405.4 368L427.8 378.6L450.2 389.9L472.5 400.5L494.9 408L517.3 419.8L539.6 429.6L562 438.4L584.4 445.4L606.8 451.8L629.1 456.4L651.5 459.4L673.9 463.1L696.2 465.3L718.6 466.8"></path><polyline points="69.90,276.20 92.30,282.70 114.60,289.50 137.00,293.90 159.40,289.70 181.70,292.30 204.10,302.90 226.50,311.20 248.80,316.70 271.20,324.00 293.60,336.50 316.00,349.50 338.30,358.40 360.70,358.50 383.10,359.30 405.40,368.00 427.80,378.60 450.20,389.90 472.50,400.50 494.90,408.00 517.30,419.80 539.60,429.60 562.00,438.40 584.40,445.40 606.80,451.80 629.10,456.40 651.50,459.40 673.90,463.10 696.20,465.30 718.60,466.80" stroke-linejoin="round" stroke-width="1.5" stroke="#4C6A9C" fill="none" stroke-linecap="butt"></polyline><g><circle cx="69.9" cy="276.2" r="1.8" fill="#4C6A9C"></circle><circle cx="92.3" cy="282.7" r="1.8" fill="#4C6A9C"></circle><circle cx="114.6" cy="289.5" r="1.8" fill="#4C6A9C"></circle><circle cx="137" cy="293.9" r="1.8" fill="#4C6A9C"></circle><circle cx="159.4" cy="289.7" r="1.8" fill="#4C6A9C"></circle><circle cx="181.7" cy="292.3" r="1.8" fill="#4C6A9C"></circle><circle cx="204.1" cy="302.9" r="1.8" fill="#4C6A9C"></circle><circle cx="226.5" cy="311.2" r="1.8" fill="#4C6A9C"></circle><circle cx="248.8" cy="316.7" r="1.8" fill="#4C6A9C"></circle><circle cx="271.2" cy="324" r="1.8" fill="#4C6A9C"></circle><circle cx="293.6" cy="336.5" r="1.8" fill="#4C6A9C"></circle><circle cx="316" cy="349.5" r="1.8" fill="#4C6A9C"></circle><circle cx="338.3" cy="358.4" r="1.8" fill="#4C6A9C"></circle><circle cx="360.7" cy="358.5" r="1.8" fill="#4C6A9C"></circle><circle cx="383.1" cy="359.3" r="1.8" fill="#4C6A9C"></circle><circle cx="405.4" cy="368" r="1.8" fill="#4C6A9C"></circle><circle cx="427.8" cy="378.6" r="1.8" fill="#4C6A9C"></circle><circle cx="450.2" cy="389.9" r="1.8" fill="#4C6A9C"></circle><circle cx="472.5" cy="400.5" r="1.8" fill="#4C6A9C"></circle><circle cx="494.9" cy="408" r="1.8" fill="#4C6A9C"></circle><circle cx="517.3" cy="419.8" r="1.8" fill="#4C6A9C"></circle><circle cx="539.6" cy="429.6" r="1.8" fill="#4C6A9C"></circle><circle cx="562" cy="438.4" r="1.8" fill="#4C6A9C"></circle><circle cx="584.4" cy="445.4" r="1.8" fill="#4C6A9C"></circle><circle cx="606.8" cy="451.8" r="1.8" fill="#4C6A9C"></circle><circle cx="629.1" cy="456.4" r="1.8" fill="#4C6A9C"></circle><circle cx="651.5" cy="459.4" r="1.8" fill="#4C6A9C"></circle><circle cx="673.9" cy="463.1" r="1.8" fill="#4C6A9C"></circle><circle cx="696.2" cy="465.3" r="1.8" fill="#4C6A9C"></circle><circle cx="718.6" cy="466.8" r="1.8" fill="#4C6A9C"></circle></g></g><g><path fill="none" stroke-linecap="butt" stroke-linejoin="round" stroke="#fff" stroke-width="2.5" d="M69.9 285.8L92.3 292L114.6 284.9L137 281.5L159.4 283.5L181.7 280.9L204.1 279.1L226.5 272.4L248.8 264L271.2 257.5L293.6 254.1L316 252.9L338.3 246L360.7 255.9L383.1 254.7L405.4 248.7L427.8 248.9L450.2 249.5L472.5 247L494.9 256.3L517.3 259.5L539.6 262.3L562 280.4L584.4 282.4L606.8 289.5L629.1 285L651.5 282.7L673.9 280.9L696.2 274.5L718.6 270.7"></path><polyline points="69.90,285.80 92.30,292.00 114.60,284.90 137.00,281.50 159.40,283.50 181.70,280.90 204.10,279.10 226.50,272.40 248.80,264.00 271.20,257.50 293.60,254.10 316.00,252.90 338.30,246.00 360.70,255.90 383.10,254.70 405.40,248.70 427.80,248.90 450.20,249.50 472.50,247.00 494.90,256.30 517.30,259.50 539.60,262.30 562.00,280.40 584.40,282.40 606.80,289.50 629.10,285.00 651.50,282.70 673.90,280.90 696.20,274.50 718.60,270.70" stroke-linejoin="round" stroke-width="1.5" stroke="#585C64" fill="none" stroke-linecap="butt"></polyline><g><circle cx="69.9" cy="285.8" r="1.8" fill="#585C64"></circle><circle cx="92.3" cy="292" r="1.8" fill="#585C64"></circle><circle cx="114.6" cy="284.9" r="1.8" fill="#585C64"></circle><circle cx="137" cy="281.5" r="1.8" fill="#585C64"></circle><circle cx="159.4" cy="283.5" r="1.8" fill="#585C64"></circle><circle cx="181.7" cy="280.9" r="1.8" fill="#585C64"></circle><circle cx="204.1" cy="279.1" r="1.8" fill="#585C64"></circle><circle cx="226.5" cy="272.4" r="1.8" fill="#585C64"></circle><circle cx="248.8" cy="264" r="1.8" fill="#585C64"></circle><circle cx="271.2" cy="257.5" r="1.8" fill="#585C64"></circle><circle cx="293.6" cy="254.1" r="1.8" fill="#585C64"></circle><circle cx="316" cy="252.9" r="1.8" fill="#585C64"></circle><circle cx="338.3" cy="246" r="1.8" fill="#585C64"></circle><circle cx="360.7" cy="255.9" r="1.8" fill="#585C64"></circle><circle cx="383.1" cy="254.7" r="1.8" fill="#585C64"></circle><circle cx="405.4" cy="248.7" r="1.8" fill="#585C64"></circle><circle cx="427.8" cy="248.9" r="1.8" fill="#585C64"></circle><circle cx="450.2" cy="249.5" r="1.8" fill="#585C64"></circle><circle cx="472.5" cy="247" r="1.8" fill="#585C64"></circle><circle cx="494.9" cy="256.3" r="1.8" fill="#585C64"></circle><circle cx="517.3" cy="259.5" r="1.8" fill="#585C64"></circle><circle cx="539.6" cy="262.3" r="1.8" fill="#585C64"></circle><circle cx="562" cy="280.4" r="1.8" fill="#585C64"></circle><circle cx="584.4" cy="282.4" r="1.8" fill="#585C64"></circle><circle cx="606.8" cy="289.5" r="1.8" fill="#585C64"></circle><circle cx="629.1" cy="285" r="1.8" fill="#585C64"></circle><circle cx="651.5" cy="282.7" r="1.8" fill="#585C64"></circle><circle cx="673.9" cy="280.9" r="1.8" fill="#585C64"></circle><circle cx="696.2" cy="274.5" r="1.8" fill="#585C64"></circle><circle cx="718.6" cy="270.7" r="1.8" fill="#585C64"></circle></g></g><g><path fill="none" stroke-linecap="butt" stroke-linejoin="round" stroke="#fff" stroke-width="2.5" d="M69.9 503.3L92.3 499.5L114.6 494L137 490.7L159.4 497.3L181.7 496.2L204.1 494.4L226.5 489.7L248.8 490.3L271.2 484.4L293.6 476.1L316 474.9L338.3 483.6L360.7 483.2L383.1 471.2L405.4 482.1L427.8 480.6L450.2 479.7L472.5 479.3L494.9 478.7L517.3 472.2L539.6 467.9L562 471.6L584.4 466.4L606.8 460.4L629.1 462.3L651.5 459.3L673.9 456.9L696.2 452.5L718.6 460.2"></path><polyline points="69.90,503.30 92.30,499.50 114.60,494.00 137.00,490.70 159.40,497.30 181.70,496.20 204.10,494.40 226.50,489.70 248.80,490.30 271.20,484.40 293.60,476.10 316.00,474.90 338.30,483.60 360.70,483.20 383.10,471.20 405.40,482.10 427.80,480.60 450.20,479.70 472.50,479.30 494.90,478.70 517.30,472.20 539.60,467.90 562.00,471.60 584.40,466.40 606.80,460.40 629.10,462.30 651.50,459.30 673.90,456.90 696.20,452.50 718.60,460.20" stroke-linejoin="round" stroke-width="1.5" stroke="#00823F" fill="none" stroke-linecap="butt"></polyline><g><circle cx="69.9" cy="503.3" r="1.8" fill="#00823F"></circle><circle cx="92.3" cy="499.5" r="1.8" fill="#00823F"></circle><circle cx="114.6" cy="494" r="1.8" fill="#00823F"></circle><circle cx="137" cy="490.7" r="1.8" fill="#00823F"></circle><circle cx="159.4" cy="497.3" r="1.8" fill="#00823F"></circle><circle cx="181.7" cy="496.2" r="1.8" fill="#00823F"></circle><circle cx="204.1" cy="494.4" r="1.8" fill="#00823F"></circle><circle cx="226.5" cy="489.7" r="1.8" fill="#00823F"></circle><circle cx="248.8" cy="490.3" r="1.8" fill="#00823F"></circle><circle cx="271.2" cy="484.4" r="1.8" fill="#00823F"></circle><circle cx="293.6" cy="476.1" r="1.8" fill="#00823F"></circle><circle cx="316" cy="474.9" r="1.8" fill="#00823F"></circle><circle cx="338.3" cy="483.6" r="1.8" fill="#00823F"></circle><circle cx="360.7" cy="483.2" r="1.8" fill="#00823F"></circle><circle cx="383.1" cy="471.2" r="1.8" fill="#00823F"></circle><circle cx="405.4" cy="482.1" r="1.8" fill="#00823F"></circle><circle cx="427.8" cy="480.6" r="1.8" fill="#00823F"></circle><circle cx="450.2" cy="479.7" r="1.8" fill="#00823F"></circle><circle cx="472.5" cy="479.3" r="1.8" fill="#00823F"></circle><circle cx="494.9" cy="478.7" r="1.8" fill="#00823F"></circle><circle cx="517.3" cy="472.2" r="1.8" fill="#00823F"></circle><circle cx="539.6" cy="467.9" r="1.8" fill="#00823F"></circle><circle cx="562" cy="471.6" r="1.8" fill="#00823F"></circle><circle cx="584.4" cy="466.4" r="1.8" fill="#00823F"></circle><circle cx="606.8" cy="460.4" r="1.8" fill="#00823F"></circle><circle cx="629.1" cy="462.3" r="1.8" fill="#00823F"></circle><circle cx="651.5" cy="459.3" r="1.8" fill="#00823F"></circle><circle cx="673.9" cy="456.9" r="1.8" fill="#00823F"></circle><circle cx="696.2" cy="452.5" r="1.8" fill="#00823F"></circle><circle cx="718.6" cy="460.2" r="1.8" fill="#00823F"></circle></g></g><g><path fill="none" stroke-linecap="butt" stroke-linejoin="round" stroke="#fff" stroke-width="2.5" d="M69.9 492.4L92.3 492.9L114.6 490.8L137 488.5L159.4 486.2L181.7 484.7L204.1 483.2L226.5 481.4L248.8 479.1L271.2 477.3L293.6 475.6L316 473.8L338.3 471.7L360.7 470.5L383.1 468.1L405.4 467.8L427.8 466L450.2 461.2L472.5 457L494.9 457.3L517.3 455.1L539.6 454.7L562 453.6L584.4 451.6L606.8 464.5L629.1 463.2L651.5 460.7L673.9 459.8L696.2 458.2L718.6 456.9"></path><polyline points="69.90,492.40 92.30,492.90 114.60,490.80 137.00,488.50 159.40,486.20 181.70,484.70 204.10,483.20 226.50,481.40 248.80,479.10 271.20,477.30 293.60,475.60 316.00,473.80 338.30,471.70 360.70,470.50 383.10,468.10 405.40,467.80 427.80,466.00 450.20,461.20 472.50,457.00 494.90,457.30 517.30,455.10 539.60,454.70 562.00,453.60 584.40,451.60 606.80,464.50 629.10,463.20 651.50,460.70 673.90,459.80 696.20,458.20 718.60,456.90" stroke-linejoin="round" stroke-width="1.5" stroke="#883039" fill="none" stroke-linecap="butt"></polyline><g><circle cx="69.9" cy="492.4" r="1.8" fill="#883039"></circle><circle cx="92.3" cy="492.9" r="1.8" fill="#883039"></circle><circle cx="114.6" cy="490.8" r="1.8" fill="#883039"></circle><circle cx="137" cy="488.5" r="1.8" fill="#883039"></circle><circle cx="159.4" cy="486.2" r="1.8" fill="#883039"></circle><circle cx="181.7" cy="484.7" r="1.8" fill="#883039"></circle><circle cx="204.1" cy="483.2" r="1.8" fill="#883039"></circle><circle cx="226.5" cy="481.4" r="1.8" fill="#883039"></circle><circle cx="248.8" cy="479.1" r="1.8" fill="#883039"></circle><circle cx="271.2" cy="477.3" r="1.8" fill="#883039"></circle><circle cx="293.6" cy="475.6" r="1.8" fill="#883039"></circle><circle cx="316" cy="473.8" r="1.8" fill="#883039"></circle><circle cx="338.3" cy="471.7" r="1.8" fill="#883039"></circle><circle cx="360.7" cy="470.5" r="1.8" fill="#883039"></circle><circle cx="383.1" cy="468.1" r="1.8" fill="#883039"></circle><circle cx="405.4" cy="467.8" r="1.8" fill="#883039"></circle><circle cx="427.8" cy="466" r="1.8" fill="#883039"></circle><circle cx="450.2" cy="461.2" r="1.8" fill="#883039"></circle><circle cx="472.5" cy="457" r="1.8" fill="#883039"></circle><circle cx="494.9" cy="457.3" r="1.8" fill="#883039"></circle><circle cx="517.3" cy="455.1" r="1.8" fill="#883039"></circle><circle cx="539.6" cy="454.7" r="1.8" fill="#883039"></circle><circle cx="562" cy="453.6" r="1.8" fill="#883039"></circle><circle cx="584.4" cy="451.6" r="1.8" fill="#883039"></circle><circle cx="606.8" cy="464.5" r="1.8" fill="#883039"></circle><circle cx="629.1" cy="463.2" r="1.8" fill="#883039"></circle><circle cx="651.5" cy="460.7" r="1.8" fill="#883039"></circle><circle cx="673.9" cy="459.8" r="1.8" fill="#883039"></circle><circle cx="696.2" cy="458.2" r="1.8" fill="#883039"></circle><circle cx="718.6" cy="456.9" r="1.8" fill="#883039"></circle></g></g><g><path fill="none" stroke-linecap="butt" stroke-linejoin="round" stroke="#fff" stroke-width="2.5" d="M69.9 251.3L92.3 252.7L114.6 258.5L137 237.6L159.4 226.4L181.7 202.1L204.1 197.3L226.5 187.3L248.8 171.2L271.2 172.8L293.6 156.4L316 141.8L338.3 128.5L360.7 127.8L383.1 137.5L405.4 142.3L427.8 140.7L450.2 141.7L472.5 135L494.9 124.9L517.3 122.1L539.6 121.7L562 104L584.4 97.7L606.8 87.3L629.1 87.2L651.5 76.6L673.9 79.1L696.2 94.3L718.6 101.9"></path><polyline points="69.90,251.30 92.30,252.70 114.60,258.50 137.00,237.60 159.40,226.40 181.70,202.10 204.10,197.30 226.50,187.30 248.80,171.20 271.20,172.80 293.60,156.40 316.00,141.80 338.30,128.50 360.70,127.80 383.10,137.50 405.40,142.30 427.80,140.70 450.20,141.70 472.50,135.00 494.90,124.90 517.30,122.10 539.60,121.70 562.00,104.00 584.40,97.70 606.80,87.30 629.10,87.20 651.50,76.60 673.90,79.10 696.20,94.30 718.60,101.90" stroke-linejoin="round" stroke-width="1.5" stroke="#CF0A66" fill="none" stroke-linecap="butt"></polyline><g><circle cx="69.9" cy="251.3" r="1.8" fill="#CF0A66"></circle><circle cx="92.3" cy="252.7" r="1.8" fill="#CF0A66"></circle><circle cx="114.6" cy="258.5" r="1.8" fill="#CF0A66"></circle><circle cx="137" cy="237.6" r="1.8" fill="#CF0A66"></circle><circle cx="159.4" cy="226.4" r="1.8" fill="#CF0A66"></circle><circle cx="181.7" cy="202.1" r="1.8" fill="#CF0A66"></circle><circle cx="204.1" cy="197.3" r="1.8" fill="#CF0A66"></circle><circle cx="226.5" cy="187.3" r="1.8" fill="#CF0A66"></circle><circle cx="248.8" cy="171.2" r="1.8" fill="#CF0A66"></circle><circle cx="271.2" cy="172.8" r="1.8" fill="#CF0A66"></circle><circle cx="293.6" cy="156.4" r="1.8" fill="#CF0A66"></circle><circle cx="316" cy="141.8" r="1.8" fill="#CF0A66"></circle><circle cx="338.3" cy="128.5" r="1.8" fill="#CF0A66"></circle><circle cx="360.7" cy="127.8" r="1.8" fill="#CF0A66"></circle><circle cx="383.1" cy="137.5" r="1.8" fill="#CF0A66"></circle><circle cx="405.4" cy="142.3" r="1.8" fill="#CF0A66"></circle><circle cx="427.8" cy="140.7" r="1.8" fill="#CF0A66"></circle><circle cx="450.2" cy="141.7" r="1.8" fill="#CF0A66"></circle><circle cx="472.5" cy="135" r="1.8" fill="#CF0A66"></circle><circle cx="494.9" cy="124.9" r="1.8" fill="#CF0A66"></circle><circle cx="517.3" cy="122.1" r="1.8" fill="#CF0A66"></circle><circle cx="539.6" cy="121.7" r="1.8" fill="#CF0A66"></circle><circle cx="562" cy="104" r="1.8" fill="#CF0A66"></circle><circle cx="584.4" cy="97.7" r="1.8" fill="#CF0A66"></circle><circle cx="606.8" cy="87.3" r="1.8" fill="#CF0A66"></circle><circle cx="629.1" cy="87.2" r="1.8" fill="#CF0A66"></circle><circle cx="651.5" cy="76.6" r="1.8" fill="#CF0A66"></circle><circle cx="673.9" cy="79.1" r="1.8" fill="#CF0A66"></circle><circle cx="696.2" cy="94.3" r="1.8" fill="#CF0A66"></circle><circle cx="718.6" cy="101.9" r="1.8" fill="#CF0A66"></circle></g></g><g><path fill="none" stroke-linecap="butt" stroke-linejoin="round" stroke="#fff" stroke-width="2.5" d="M69.9 523.5L92.3 522.5L114.6 521.3L137 520.2L159.4 519.6L181.7 519.2L204.1 519.3L226.5 520.2L248.8 521.5L271.2 522.8L293.6 523L316 524.1L338.3 525.4L360.7 526.1L383.1 526.2L405.4 525.8L427.8 524.9L450.2 524.9L472.5 524.9L494.9 524L517.3 523.6L539.6 523L562 523.3L584.4 521.9L606.8 520.6L629.1 520.2L651.5 520.4L673.9 520.6L696.2 520.9L718.6 521.1"></path><polyline points="69.90,523.50 92.30,522.50 114.60,521.30 137.00,520.20 159.40,519.60 181.70,519.20 204.10,519.30 226.50,520.20 248.80,521.50 271.20,522.80 293.60,523.00 316.00,524.10 338.30,525.40 360.70,526.10 383.10,526.20 405.40,525.80 427.80,524.90 450.20,524.90 472.50,524.90 494.90,524.00 517.30,523.60 539.60,523.00 562.00,523.30 584.40,521.90 606.80,520.60 629.10,520.20 651.50,520.40 673.90,520.60 696.20,520.90 718.60,521.10" stroke-linejoin="round" stroke-width="1.5" stroke="#C05917" fill="none" stroke-linecap="butt"></polyline><g><circle cx="69.9" cy="523.5" r="1.8" fill="#C05917"></circle><circle cx="92.3" cy="522.5" r="1.8" fill="#C05917"></circle><circle cx="114.6" cy="521.3" r="1.8" fill="#C05917"></circle><circle cx="137" cy="520.2" r="1.8" fill="#C05917"></circle><circle cx="159.4" cy="519.6" r="1.8" fill="#C05917"></circle><circle cx="181.7" cy="519.2" r="1.8" fill="#C05917"></circle><circle cx="204.1" cy="519.3" r="1.8" fill="#C05917"></circle><circle cx="226.5" cy="520.2" r="1.8" fill="#C05917"></circle><circle cx="248.8" cy="521.5" r="1.8" fill="#C05917"></circle><circle cx="271.2" cy="522.8" r="1.8" fill="#C05917"></circle><circle cx="293.6" cy="523" r="1.8" fill="#C05917"></circle><circle cx="316" cy="524.1" r="1.8" fill="#C05917"></circle><circle cx="338.3" cy="525.4" r="1.8" fill="#C05917"></circle><circle cx="360.7" cy="526.1" r="1.8" fill="#C05917"></circle><circle cx="383.1" cy="526.2" r="1.8" fill="#C05917"></circle><circle cx="405.4" cy="525.8" r="1.8" fill="#C05917"></circle><circle cx="427.8" cy="524.9" r="1.8" fill="#C05917"></circle><circle cx="450.2" cy="524.9" r="1.8" fill="#C05917"></circle><circle cx="472.5" cy="524.9" r="1.8" fill="#C05917"></circle><circle cx="494.9" cy="524" r="1.8" fill="#C05917"></circle><circle cx="517.3" cy="523.6" r="1.8" fill="#C05917"></circle><circle cx="539.6" cy="523" r="1.8" fill="#C05917"></circle><circle cx="562" cy="523.3" r="1.8" fill="#C05917"></circle><circle cx="584.4" cy="521.9" r="1.8" fill="#C05917"></circle><circle cx="606.8" cy="520.6" r="1.8" fill="#C05917"></circle><circle cx="629.1" cy="520.2" r="1.8" fill="#C05917"></circle><circle cx="651.5" cy="520.4" r="1.8" fill="#C05917"></circle><circle cx="673.9" cy="520.6" r="1.8" fill="#C05917"></circle><circle cx="696.2" cy="520.9" r="1.8" fill="#C05917"></circle><circle cx="718.6" cy="521.1" r="1.8" fill="#C05917"></circle></g></g><g><path fill="none" stroke-linecap="butt" stroke-linejoin="round" stroke="#fff" stroke-width="2.5" d="M69.9 376.4L92.3 371.4L114.6 376.6L137 374.6L159.4 379.4L181.7 389L204.1 401L226.5 409.9L248.8 417.3L271.2 423.2L293.6 424.7L316 421.2L338.3 419.4L360.7 419.9L383.1 420.9L405.4 416.7L427.8 414.1L450.2 416.8L472.5 421.2L494.9 426.4L517.3 430.6L539.6 431.3L562 428.9L584.4 434.4L606.8 435.4L629.1 424.9L651.5 417.6L673.9 420.4L696.2 425.5L718.6 428"></path><polyline points="69.90,376.40 92.30,371.40 114.60,376.60 137.00,374.60 159.40,379.40 181.70,389.00 204.10,401.00 226.50,409.90 248.80,417.30 271.20,423.20 293.60,424.70 316.00,421.20 338.30,419.40 360.70,419.90 383.10,420.90 405.40,416.70 427.80,414.10 450.20,416.80 472.50,421.20 494.90,426.40 517.30,430.60 539.60,431.30 562.00,428.90 584.40,434.40 606.80,435.40 629.10,424.90 651.50,417.60 673.90,420.40 696.20,425.50 718.60,428.00" stroke-linejoin="round" stroke-width="1.5" stroke="#B13507" fill="none" stroke-linecap="butt"></polyline><g><circle cx="69.9" cy="376.4" r="1.8" fill="#B13507"></circle><circle cx="92.3" cy="371.4" r="1.8" fill="#B13507"></circle><circle cx="114.6" cy="376.6" r="1.8" fill="#B13507"></circle><circle cx="137" cy="374.6" r="1.8" fill="#B13507"></circle><circle cx="159.4" cy="379.4" r="1.8" fill="#B13507"></circle><circle cx="181.7" cy="389" r="1.8" fill="#B13507"></circle><circle cx="204.1" cy="401" r="1.8" fill="#B13507"></circle><circle cx="226.5" cy="409.9" r="1.8" fill="#B13507"></circle><circle cx="248.8" cy="417.3" r="1.8" fill="#B13507"></circle><circle cx="271.2" cy="423.2" r="1.8" fill="#B13507"></circle><circle cx="293.6" cy="424.7" r="1.8" fill="#B13507"></circle><circle cx="316" cy="421.2" r="1.8" fill="#B13507"></circle><circle cx="338.3" cy="419.4" r="1.8" fill="#B13507"></circle><circle cx="360.7" cy="419.9" r="1.8" fill="#B13507"></circle><circle cx="383.1" cy="420.9" r="1.8" fill="#B13507"></circle><circle cx="405.4" cy="416.7" r="1.8" fill="#B13507"></circle><circle cx="427.8" cy="414.1" r="1.8" fill="#B13507"></circle><circle cx="450.2" cy="416.8" r="1.8" fill="#B13507"></circle><circle cx="472.5" cy="421.2" r="1.8" fill="#B13507"></circle><circle cx="494.9" cy="426.4" r="1.8" fill="#B13507"></circle><circle cx="517.3" cy="430.6" r="1.8" fill="#B13507"></circle><circle cx="539.6" cy="431.3" r="1.8" fill="#B13507"></circle><circle cx="562" cy="428.9" r="1.8" fill="#B13507"></circle><circle cx="584.4" cy="434.4" r="1.8" fill="#B13507"></circle><circle cx="606.8" cy="435.4" r="1.8" fill="#B13507"></circle><circle cx="629.1" cy="424.9" r="1.8" fill="#B13507"></circle><circle cx="651.5" cy="417.6" r="1.8" fill="#B13507"></circle><circle cx="673.9" cy="420.4" r="1.8" fill="#B13507"></circle><circle cx="696.2" cy="425.5" r="1.8" fill="#B13507"></circle><circle cx="718.6" cy="428" r="1.8" fill="#B13507"></circle></g></g><g><path fill="none" stroke-linecap="butt" stroke-linejoin="round" stroke="#fff" stroke-width="2.5" d="M69.9 356.1L92.3 338.2L114.6 266.4L137 168.2L159.4 117.3L181.7 129.1L204.1 189.6L226.5 225L248.8 232.6L271.2 193.1L293.6 176.5L316 169.7L338.3 162.7L360.7 172L383.1 185.7L405.4 195.3L427.8 255L450.2 280L472.5 293.1L494.9 323.6L517.3 332.8L539.6 352.8L562 364.4L584.4 370.8L606.8 375.5L629.1 383.9L651.5 396.9L673.9 409.3L696.2 399.7L718.6 397"></path><polyline points="69.90,356.10 92.30,338.20 114.60,266.40 137.00,168.20 159.40,117.30 181.70,129.10 204.10,189.60 226.50,225.00 248.80,232.60 271.20,193.10 293.60,176.50 316.00,169.70 338.30,162.70 360.70,172.00 383.10,185.70 405.40,195.30 427.80,255.00 450.20,280.00 472.50,293.10 494.90,323.60 517.30,332.80 539.60,352.80 562.00,364.40 584.40,370.80 606.80,375.50 629.10,383.90 651.50,396.90 673.90,409.30 696.20,399.70 718.60,397.00" stroke-linejoin="round" stroke-width="1.5" stroke="#3C4E66" fill="none" stroke-linecap="butt"></polyline><g><circle cx="69.9" cy="356.1" r="1.8" fill="#3C4E66"></circle><circle cx="92.3" cy="338.2" r="1.8" fill="#3C4E66"></circle><circle cx="114.6" cy="266.4" r="1.8" fill="#3C4E66"></circle><circle cx="137" cy="168.2" r="1.8" fill="#3C4E66"></circle><circle cx="159.4" cy="117.3" r="1.8" fill="#3C4E66"></circle><circle cx="181.7" cy="129.1" r="1.8" fill="#3C4E66"></circle><circle cx="204.1" cy="189.6" r="1.8" fill="#3C4E66"></circle><circle cx="226.5" cy="225" r="1.8" fill="#3C4E66"></circle><circle cx="248.8" cy="232.6" r="1.8" fill="#3C4E66"></circle><circle cx="271.2" cy="193.1" r="1.8" fill="#3C4E66"></circle><circle cx="293.6" cy="176.5" r="1.8" fill="#3C4E66"></circle><circle cx="316" cy="169.7" r="1.8" fill="#3C4E66"></circle><circle cx="338.3" cy="162.7" r="1.8" fill="#3C4E66"></circle><circle cx="360.7" cy="172" r="1.8" fill="#3C4E66"></circle><circle cx="383.1" cy="185.7" r="1.8" fill="#3C4E66"></circle><circle cx="405.4" cy="195.3" r="1.8" fill="#3C4E66"></circle><circle cx="427.8" cy="255" r="1.8" fill="#3C4E66"></circle><circle cx="450.2" cy="280" r="1.8" fill="#3C4E66"></circle><circle cx="472.5" cy="293.1" r="1.8" fill="#3C4E66"></circle><circle cx="494.9" cy="323.6" r="1.8" fill="#3C4E66"></circle><circle cx="517.3" cy="332.8" r="1.8" fill="#3C4E66"></circle><circle cx="539.6" cy="352.8" r="1.8" fill="#3C4E66"></circle><circle cx="562" cy="364.4" r="1.8" fill="#3C4E66"></circle><circle cx="584.4" cy="370.8" r="1.8" fill="#3C4E66"></circle><circle cx="606.8" cy="375.5" r="1.8" fill="#3C4E66"></circle><circle cx="629.1" cy="383.9" r="1.8" fill="#3C4E66"></circle><circle cx="651.5" cy="396.9" r="1.8" fill="#3C4E66"></circle><circle cx="673.9" cy="409.3" r="1.8" fill="#3C4E66"></circle><circle cx="696.2" cy="399.7" r="1.8" fill="#3C4E66"></circle><circle cx="718.6" cy="397" r="1.8" fill="#3C4E66"></circle></g></g></g></g></g><g class="SourcesFooter" style="fill:#777"><g style="fill:#777"><text font-size="12.60" x="15.0" y="582.5"><tspan x="15" y="582.48">Source: IHME, Global Burden of Disease (GBD)</tspan></text></g><text font-size="12.60" x="606.2" y="582.5"><tspan x="606.184" y="582.48"><a target='_blank' style='fill: #777;' href='https://ourworldindata.org/homicides/'>OurWorldInData.org/homicides/</a>  <a style="fill: #777;" class="cclogo" href="http://creativecommons.org/licenses/by/4.0/deed.en_US" target="_blank">CC BY</a></tspan></text></g></svg>